<svg width="402" height="167" viewBox="0 0 402 167" fill="none" xmlns="http://www.w3.org/2000/svg">
<rect x="78.5181" y="0.12793" width="11.6622" height="11.6138" fill="#C1C1C1"/>
<rect x="78.5181" y="154.979" width="11.6622" height="11.6138" fill="black"/>
<rect x="0.770508" y="89.1664" width="11.6138" height="11.6622" transform="rotate(-90 0.770508 89.1664)" fill="#C1C1C1"/>
<rect x="156.267" y="89.1664" width="11.6138" height="11.6622" transform="rotate(-90 156.267 89.1664)" fill="#C1C1C1"/>
<rect width="11.638" height="11.638" transform="matrix(-0.708575 -0.705635 0.708575 -0.705635 29.373 146.319)" fill="#C1C1C1"/>
<rect width="11.638" height="11.638" transform="matrix(-0.708575 -0.705635 0.708575 -0.705635 139.326 36.8245)" fill="#C1C1C1"/>
<rect width="11.638" height="11.638" transform="matrix(0.708575 -0.705635 0.708575 0.705635 21.126 28.6127)" fill="#C1C1C1"/>
<rect width="11.638" height="11.638" transform="matrix(0.708576 -0.705635 0.708576 0.705635 131.079 138.107)" fill="#C1C1C1"/>
<path d="M166.429 83.3599C166.429 128.494 129.687 165.092 84.3497 165.092C39.0127 165.092 2.27051 128.494 2.27051 83.3599C2.27051 38.2262 39.0127 1.6275 84.3497 1.6275C129.687 1.6275 166.429 38.2262 166.429 83.3599Z" stroke="white" stroke-width="3"/>
<rect x="311.908" y="0.127869" width="11.6622" height="11.6138" fill="#C1C1C1"/>
<rect x="311.908" y="154.979" width="11.6622" height="11.6138" fill="black"/>
<rect x="234.16" y="89.1664" width="11.6138" height="11.6622" transform="rotate(-90 234.16 89.1664)" fill="#C1C1C1"/>
<rect x="389.656" y="89.1664" width="11.6138" height="11.6622" transform="rotate(-90 389.656 89.1664)" fill="#C1C1C1"/>
<rect width="11.6381" height="11.6381" transform="matrix(-0.708576 -0.705635 0.708576 -0.705635 262.763 146.319)" fill="#C1C1C1"/>
<rect width="11.638" height="11.638" transform="matrix(-0.708576 -0.705635 0.708576 -0.705635 372.716 36.8245)" fill="#C1C1C1"/>
<rect width="11.638" height="11.638" transform="matrix(0.708574 -0.705636 0.708574 0.705636 254.516 28.6127)" fill="#C1C1C1"/>
<rect width="11.638" height="11.638" transform="matrix(0.708575 -0.705635 0.708575 0.705635 364.468 138.107)" fill="#C1C1C1"/>
<path d="M399.819 83.3598C399.819 128.494 363.076 165.092 317.739 165.092C272.402 165.092 235.66 128.494 235.66 83.3598C235.66 38.2262 272.402 1.62744 317.739 1.62744C363.076 1.62744 399.819 38.2262 399.819 83.3598Z" stroke="white" stroke-width="3"/>
</svg>
