<svg width="138" height="138" viewBox="0 0 138 138" fill="none" xmlns="http://www.w3.org/2000/svg">
<circle cx="69" cy="69" r="69" fill="#FA4343"/>
<path d="M47.9554 59.7496V81.4808H45.2564V62.466H37.699V81.4808H35V59.7496H47.9554Z" fill="black"/>
<path d="M53.9113 59.7496L55.6207 70.5065C55.6567 70.7721 55.7767 71.0075 55.9806 71.2128C56.1965 71.418 56.4664 71.5206 56.7903 71.5206H58.6437L61.3607 59.7496H64.1497L60.2991 76.3558C59.9992 77.6114 59.2974 78.7825 58.1938 79.869C57.1022 80.9435 55.6627 81.4808 53.8754 81.4808L53.8934 78.7825C54.925 78.7704 55.7647 78.4505 56.4125 77.8227C57.0722 77.1828 57.4861 76.4886 57.654 75.7401L58.0139 74.237H56.7903C55.7227 74.237 54.847 73.899 54.1633 73.2229C53.4915 72.5348 53.0896 71.7742 52.9577 70.9411L51.1943 59.7496H53.9113Z" fill="black"/>
<path d="M80.344 74.9614C80.344 76.7603 79.7083 78.2996 78.4367 79.5793C77.1772 80.8469 75.6537 81.4808 73.8663 81.4808C72.0789 81.4808 70.5495 80.8469 69.2779 79.5793C68.0184 78.2996 67.3886 76.7603 67.3886 74.9614V66.2689C67.3886 64.4701 68.0184 62.9368 69.2779 61.6692C70.5495 60.3894 72.0789 59.7496 73.8663 59.7496C75.6537 59.7496 77.1772 60.3894 78.4367 61.6692C79.7083 62.9368 80.344 64.4701 80.344 66.2689H77.645C77.645 65.2186 77.2731 64.3252 76.5294 63.5888C75.7976 62.8402 74.91 62.466 73.8663 62.466C72.8227 62.466 71.929 62.8402 71.1853 63.5888C70.4535 64.3252 70.0877 65.2186 70.0877 66.2689V74.9614C70.0877 76.0118 70.4535 76.9112 71.1853 77.6597C71.929 78.3961 72.8227 78.7644 73.8663 78.7644C74.91 78.7644 75.7976 78.3961 76.5294 77.6597C77.2731 76.9112 77.645 76.0118 77.645 74.9614H80.344Z" fill="black"/>
<path d="M86.2819 59.7496V69.5648L93.2275 59.7496H96.5383L91.4101 66.9933L96.5383 81.4808H93.6773L89.5028 69.6916L86.2819 74.237V81.4808H83.5829V59.7496H86.2819Z" fill="black"/>
<path d="M105.784 74.0261H103.683L102.762 55H106.705L105.784 74.0261ZM102.43 79.478C102.43 78.5632 102.652 77.9203 103.094 77.5495C103.536 77.1786 104.076 76.9931 104.715 76.9931C105.329 76.9931 105.858 77.1786 106.3 77.5495C106.767 77.9203 107 78.5632 107 79.478C107 80.3681 106.767 81.011 106.3 81.4066C105.858 81.8022 105.329 82 104.715 82C104.076 82 103.536 81.8022 103.094 81.4066C102.652 81.011 102.43 80.3681 102.43 79.478Z" fill="black"/>
</svg>
