<svg width="200" height="246" viewBox="0 0 200 246" fill="none" xmlns="http://www.w3.org/2000/svg">
<rect y="9" width="200" height="237" fill="black"/>
<path d="M39 29.0459H45.5416C46.8291 29.0459 47.9297 29.4984 48.8435 30.4035C49.7572 31.3085 50.2141 32.3986 50.2141 33.6739C50.2141 34.9491 49.6015 36.1987 48.3762 37.4225C49.6015 38.6361 50.2141 40.009 50.2141 41.5414V42.0042C50.2141 43.5365 49.6638 44.8478 48.5631 45.9379C47.4729 47.0178 46.1542 47.5577 44.607 47.5577H39V29.0459ZM41.3363 31.3599V35.9878H45.5416C46.1853 35.9878 46.7356 35.7616 47.1925 35.3091C47.6494 34.8566 47.8778 34.3115 47.8778 33.6739C47.8778 33.0362 47.6494 32.4912 47.1925 32.0387C46.7356 31.5862 46.1853 31.3599 45.5416 31.3599H41.3363ZM41.3363 38.3018V45.2437H44.607C45.5104 45.2437 46.2788 44.93 46.9122 44.3027C47.5559 43.6651 47.8778 42.8989 47.8778 42.0042V41.5414C47.8778 40.6466 47.5559 39.8856 46.9122 39.2583C46.2788 38.6206 45.5104 38.3018 44.607 38.3018H41.3363Z" fill="white"/>
<path d="M55.3539 29.0459V35.9878H61.8954V29.0459H64.2317V47.5577H61.8954V38.3018H55.3539V47.5577H53.0176V29.0459H55.3539Z" fill="white"/>
<path d="M69.3715 29.0459V42.5595L75.8352 29.0459H78.2493V47.5577H75.9131V34.0441L69.6051 47.5577L67.0352 47.5423V29.0459H69.3715Z" fill="white"/>
<path d="M83.3891 29.0459L89.4634 38.3018L95.5377 29.0459H97.874V47.5577H95.5377V33.2882L89.4634 42.5441L83.3891 33.2882V47.5577H81.0529V29.0459H83.3891Z" fill="white"/>
<path d="M105.116 29.0459H107.453L111.892 47.5577H109.493L108.559 43.7011H104.011L103.076 47.5577H100.678L105.116 29.0459ZM104.556 41.3871H108.013L106.285 34.1829L104.556 41.3871Z" fill="white"/>
<path d="M117.031 29.0459V35.9878H123.573V29.0459H125.909V47.5577H123.573V38.3018H117.031V47.5577H114.695V29.0459H117.031Z" fill="white"/>
<path d="M131.049 29.0459V42.5595L137.513 29.0459H139.927V47.5577H137.591V34.0441L131.283 47.5577L128.713 47.5423V29.0459H131.049Z" fill="white"/>
<path d="M152.776 29.0459V31.3599H145.067V35.9878H151.608V38.3018H145.067V45.2437H153.944V47.5577H142.73V29.0459H152.776Z" fill="white"/>
<path d="M161.947 41.2074H160.129L159.332 25H162.745L161.947 41.2074ZM159.045 45.8516C159.045 45.0723 159.236 44.5247 159.619 44.2088C160.002 43.8929 160.469 43.7349 161.022 43.7349C161.554 43.7349 162.011 43.8929 162.394 44.2088C162.798 44.5247 163 45.0723 163 45.8516C163 46.6099 162.798 47.1575 162.394 47.4945C162.011 47.8315 161.554 48 161.022 48C160.469 48 160.002 47.8315 159.619 47.4945C159.236 47.1575 159.045 46.6099 159.045 45.8516Z" fill="white"/>
<rect x="42" width="117" height="9" fill="#C4C4C4"/>
</svg>
