<svg width="212" height="220" viewBox="0 0 212 220" fill="none" xmlns="http://www.w3.org/2000/svg">
<path d="M53.3083 218.506C24.7538 218.506 1.52637 195.281 1.52637 166.729V61.5575C1.52637 33.0055 24.7538 9.78027 53.3083 9.78027H158.483C187.038 9.78027 210.265 33.0055 210.265 61.5575V166.723C210.265 195.275 187.038 218.5 158.483 218.5H53.3083V218.506Z" fill="#FBF32F"/>
<path d="M158.489 10.6838C186.543 10.6838 209.366 33.5048 209.366 61.5561V166.721C209.366 194.772 186.543 217.593 158.489 217.593H53.308C25.2542 217.593 2.43102 194.772 2.43102 166.721V61.5561C2.43102 33.5048 25.2542 10.6838 53.308 10.6838H158.489ZM158.489 8.87402H53.308C24.2105 8.87402 0.621094 32.4612 0.621094 61.5561V166.721C0.621094 195.816 24.2105 219.403 53.308 219.403H158.483C187.58 219.403 211.17 195.816 211.17 166.721V61.5561C211.176 32.4612 187.586 8.87402 158.489 8.87402Z" fill="#FBF32F"/>
<rect x="47" width="117" height="9" fill="#C4C4C4"/>
</svg>
