<svg width="274" height="231" viewBox="0 0 274 231" fill="none" xmlns="http://www.w3.org/2000/svg">
<rect x="1" y="1" width="272" height="229" fill="white" stroke="black" stroke-width="2"/>
<rect x="20.376" y="82.4704" width="233.248" height="66.0588" fill="#C4C4C4" stroke="black" stroke-width="2"/>
<rect x="21.376" y="99.0002" width="231.248" height="48.5294" fill="#FF0000"/>
<rect x="21" y="83" width="232" height="41" fill="#D30909"/>
<rect x="21.376" y="124" width="231.248" height="5.82352" fill="#A90000"/>
<rect x="80" y="82" width="2" height="66" fill="black"/>
<rect x="136" y="82" width="2" height="66" fill="black"/>
<path d="M40.8085 132H42.3498V144.011H40.8085V132Z" fill="black"/>
<path d="M51.1663 132L44.0453 144.011H43.1205L50.2415 132H51.1663Z" fill="black"/>
<path d="M55.9548 132C56.9755 132 57.8455 132.354 58.5648 133.061C59.291 133.762 59.654 134.609 59.654 135.603V140.408C59.654 141.402 59.291 142.253 58.5648 142.96C57.8455 143.661 56.9755 144.011 55.9548 144.011C54.9341 144.011 54.0607 143.661 53.3345 142.96C52.6152 142.253 52.2556 141.402 52.2556 140.408V135.603C52.2556 134.609 52.6152 133.762 53.3345 133.061C54.0607 132.354 54.9341 132 55.9548 132ZM53.7969 135.603V140.408C53.7969 140.989 54.0059 141.486 54.4237 141.899C54.8485 142.306 55.3588 142.51 55.9548 142.51C56.5508 142.51 57.0577 142.306 57.4756 141.899C57.9003 141.486 58.1127 140.989 58.1127 140.408V135.603C58.1127 135.023 57.9003 134.529 57.4756 134.122C57.0577 133.708 56.5508 133.501 55.9548 133.501C55.3588 133.501 54.8485 133.708 54.4237 134.122C54.0059 134.529 53.7969 135.023 53.7969 135.603Z" fill="black"/>
<path d="M99.0857 132H100.627V144.011H99.0857V132Z" fill="black"/>
<path d="M109.444 132L102.323 144.011H101.398L108.519 132H109.444Z" fill="black"/>
<path d="M114.232 132C115.253 132 116.123 132.354 116.842 133.061C117.568 133.762 117.931 134.609 117.931 135.603V140.408C117.931 141.402 117.568 142.253 116.842 142.96C116.123 143.661 115.253 144.011 114.232 144.011C113.211 144.011 112.338 143.661 111.612 142.96C110.892 142.253 110.533 141.402 110.533 140.408V135.603C110.533 134.609 110.892 133.762 111.612 133.061C112.338 132.354 113.211 132 114.232 132ZM112.074 135.603V140.408C112.074 140.989 112.283 141.486 112.701 141.899C113.126 142.306 113.636 142.51 114.232 142.51C114.828 142.51 115.335 142.306 115.753 141.899C116.178 141.486 116.39 140.989 116.39 140.408V135.603C116.39 135.023 116.178 134.529 115.753 134.122C115.335 133.708 114.828 133.501 114.232 133.501C113.636 133.501 113.126 133.708 112.701 134.122C112.283 134.529 112.074 135.023 112.074 135.603Z" fill="black"/>
<path d="M154.125 133.577H155.667V145.588H154.125V133.577Z" fill="black"/>
<path d="M164.483 133.577L157.362 145.588H156.437L163.558 133.577H164.483Z" fill="black"/>
<path d="M169.272 133.577C170.292 133.577 171.162 133.931 171.882 134.638C172.608 135.339 172.971 136.186 172.971 137.18V141.985C172.971 142.979 172.608 143.83 171.882 144.537C171.162 145.238 170.292 145.588 169.272 145.588C168.251 145.588 167.378 145.238 166.651 144.537C165.932 143.83 165.572 142.979 165.572 141.985V137.18C165.572 136.186 165.932 135.339 166.651 134.638C167.378 133.931 168.251 133.577 169.272 133.577ZM167.114 137.18V141.985C167.114 142.565 167.323 143.063 167.741 143.476C168.165 143.883 168.676 144.087 169.272 144.087C169.868 144.087 170.375 143.883 170.792 143.476C171.217 143.063 171.43 142.565 171.43 141.985V137.18C171.43 136.6 171.217 136.106 170.792 135.699C170.375 135.285 169.868 135.078 169.272 135.078C168.676 135.078 168.165 135.285 167.741 135.699C167.323 136.106 167.114 136.6 167.114 137.18Z" fill="black"/>
<path d="M212.403 132H213.944V144.011H212.403V132Z" fill="black"/>
<path d="M222.76 132L215.639 144.011H214.715L221.836 132H222.76Z" fill="black"/>
<path d="M227.549 132C228.57 132 229.44 132.354 230.159 133.061C230.885 133.762 231.248 134.609 231.248 135.603V140.408C231.248 141.402 230.885 142.253 230.159 142.96C229.44 143.661 228.57 144.011 227.549 144.011C226.528 144.011 225.655 143.661 224.929 142.96C224.209 142.253 223.85 141.402 223.85 140.408V135.603C223.85 134.609 224.209 133.762 224.929 133.061C225.655 132.354 226.528 132 227.549 132ZM225.391 135.603V140.408C225.391 140.989 225.6 141.486 226.018 141.899C226.443 142.306 226.953 142.51 227.549 142.51C228.145 142.51 228.652 142.306 229.07 141.899C229.494 141.486 229.707 140.989 229.707 140.408V135.603C229.707 135.023 229.494 134.529 229.07 134.122C228.652 133.708 228.145 133.501 227.549 133.501C226.953 133.501 226.443 133.708 226.018 134.122C225.6 134.529 225.391 135.023 225.391 135.603Z" fill="black"/>
<rect x="7" y="7" width="260" height="217" stroke="black" stroke-width="14"/>
</svg>
