<svg width="236" height="262" viewBox="0 0 236 262" fill="none" xmlns="http://www.w3.org/2000/svg">
<path d="M59.0564 235.372C27.05 235.372 1.01489 209.295 1.01489 177.237V59.1516C1.01489 27.0937 27.05 1.0166 59.0564 1.0166H176.945C208.951 1.0166 234.986 27.0937 234.986 59.1516V177.23C234.986 209.288 208.951 235.365 176.945 235.365H59.0564V235.372Z" fill="url(#paint0_linear)"/>
<path d="M176.951 2.03198C208.396 2.03198 233.978 27.6553 233.978 59.151V177.23C233.978 208.725 208.396 234.349 176.951 234.349H59.0558C27.6108 234.349 2.02871 208.725 2.02871 177.23V59.151C2.02871 27.6553 27.6108 2.03198 59.0558 2.03198H176.951ZM176.951 0H59.0558C26.4409 0 0 26.4835 0 59.151V177.23C0 209.897 26.4409 236.381 59.0558 236.381H176.944C209.559 236.381 236 209.897 236 177.23V59.151C236.007 26.4835 209.566 0 176.951 0Z" fill="black"/>
<path d="M12.1575 37.8584H18.8521C20.1697 37.8584 21.2961 38.3309 22.2312 39.2758C23.1663 40.2207 23.6339 41.3589 23.6339 42.6904C23.6339 44.0218 23.0069 45.3265 21.753 46.6043C23.0069 47.8713 23.6339 49.3048 23.6339 50.9047V51.3879C23.6339 52.9878 23.0707 54.3569 21.9443 55.4951C20.8285 56.6225 19.479 57.1863 17.8957 57.1863H12.1575V37.8584ZM14.5484 40.2744V45.1063H18.8521C19.5109 45.1063 20.0741 44.8701 20.5416 44.3977C21.0092 43.9252 21.243 43.3561 21.243 42.6904C21.243 42.0246 21.0092 41.4555 20.5416 40.9831C20.0741 40.5106 19.5109 40.2744 18.8521 40.2744H14.5484ZM14.5484 47.5223V54.7703H17.8957C18.8202 54.7703 19.6065 54.4428 20.2547 53.7878C20.9136 53.122 21.243 52.3221 21.243 51.3879V50.9047C21.243 49.9705 20.9136 49.1759 20.2547 48.5209C19.6065 47.8552 18.8202 47.5223 17.8957 47.5223H14.5484Z" fill="black"/>
<path d="M41.3267 37.8584H43.7176V57.1863H41.3267V37.8584ZM26.503 57.1863V37.8584H28.8939V45.1063H32.2412C33.8245 45.1063 35.1741 45.6754 36.2898 46.8136C37.4162 47.9411 37.9794 49.3048 37.9794 50.9047V51.3879C37.9794 52.9878 37.4162 54.3569 36.2898 55.4951C35.1741 56.6225 33.8245 57.1863 32.2412 57.1863H26.503ZM32.2412 54.7703C33.1657 54.7703 33.9521 54.4428 34.6003 53.7878C35.2591 53.122 35.5885 52.3221 35.5885 51.3879V50.9047C35.5885 49.9705 35.2591 49.1759 34.6003 48.5209C33.9521 47.8552 33.1657 47.5223 32.2412 47.5223H28.8939V54.7703H32.2412Z" fill="black"/>
<path d="M48.9777 37.8584V46.5882L55.1303 37.8584H58.0632L53.5204 44.301L58.0632 57.1863H55.5288L51.8308 46.7009L48.9777 50.7436V57.1863H46.5868V37.8584H48.9777Z" fill="black"/>
<path d="M68.0094 37.8584H72.4087V57.1863H70.0178V40.2744H68.0094C67.4356 40.2744 67.0956 40.5589 66.9893 41.128L64.3115 54.3998C63.9289 56.2575 62.8025 57.1863 60.9323 57.1863V54.7703C61.5061 54.7703 61.8515 54.4857 61.9684 53.9166L64.7099 40.6448C65.0394 38.7872 66.1392 37.8584 68.0094 37.8584Z" fill="black"/>
<path d="M75.2778 54.6736C75.4903 54.6736 75.6922 54.7273 75.8835 54.8347C76.0854 54.9421 76.2395 55.0978 76.3458 55.3018C76.4627 55.5058 76.5211 55.7152 76.5211 55.93C76.5211 56.1447 76.4627 56.3541 76.3458 56.5581C76.2395 56.7514 76.0854 56.9071 75.8835 57.0252C75.6922 57.1326 75.4903 57.1863 75.2778 57.1863C75.0653 57.1863 74.8634 57.1326 74.6721 57.0252C74.4702 56.9071 74.3161 56.7514 74.2099 56.5581C74.093 56.3541 74.0345 56.1447 74.0345 55.93C74.0345 55.7152 74.093 55.5058 74.2099 55.3018C74.3161 55.0978 74.4702 54.9421 74.6721 54.8347C74.8634 54.7273 75.0653 54.6736 75.2778 54.6736Z" fill="black"/>
<path d="M99.4434 23.7657C99.4434 25.3064 98.88 26.6247 97.7533 27.7208C96.6372 28.8065 95.2873 29.3493 93.7035 29.3493C92.1197 29.3493 90.7645 28.8065 89.6378 27.7208C88.5217 26.6247 87.9636 25.3064 87.9636 23.7657V16.3209C87.9636 14.7802 88.5217 13.4671 89.6378 12.3814C90.7645 11.2853 92.1197 10.7373 93.7035 10.7373C95.2873 10.7373 96.6372 11.2853 97.7533 12.3814C98.88 13.4671 99.4434 14.7802 99.4434 16.3209H97.0518C97.0518 15.4213 96.7223 14.6562 96.0632 14.0254C95.4148 13.3843 94.6283 13.0638 93.7035 13.0638C92.7787 13.0638 91.9869 13.3843 91.3278 14.0254C90.6794 14.6562 90.3552 15.4213 90.3552 16.3209V23.7657C90.3552 24.6653 90.6794 25.4356 91.3278 26.0767C91.9869 26.7075 92.7787 27.0228 93.7035 27.0228C94.6283 27.0228 95.4148 26.7075 96.0632 26.0767C96.7223 25.4356 97.0518 24.6653 97.0518 23.7657H99.4434Z" fill="black"/>
<path d="M113.793 10.7373V13.0638H109.249V29.3493H106.857V13.0638H102.313V10.7373H113.793Z" fill="black"/>
<path d="M121.207 10.7373H123.599L128.143 29.3493H125.687L124.731 25.4718H120.075L119.118 29.3493H116.663L121.207 10.7373ZM120.633 23.1453H124.173L122.403 15.9021L120.633 23.1453Z" fill="black"/>
<path d="M142.492 10.7373V13.0638H137.948V29.3493H135.557V13.0638H131.013V10.7373H142.492Z" fill="black"/>
<path d="M145.362 26.9298C145.575 26.9298 145.777 26.9815 145.968 27.0849C146.17 27.1883 146.324 27.3382 146.431 27.5347C146.548 27.7311 146.606 27.9327 146.606 28.1395C146.606 28.3463 146.548 28.548 146.431 28.7444C146.324 28.9306 146.17 29.0805 145.968 29.1942C145.777 29.2976 145.575 29.3493 145.362 29.3493C145.15 29.3493 144.948 29.2976 144.757 29.1942C144.555 29.0805 144.4 28.9306 144.294 28.7444C144.177 28.548 144.119 28.3463 144.119 28.1395C144.119 27.9327 144.177 27.7311 144.294 27.5347C144.4 27.3382 144.555 27.1883 144.757 27.0849C144.948 26.9815 145.15 26.9298 145.362 26.9298Z" fill="black"/>
<path d="M167.132 37.8584H172.869V54.5615H175.259V59.3338H172.869V56.9477H160.439L160.391 59.3338H158.049V54.5615H160.439L163.785 40.4991C164.2 38.7386 165.315 37.8584 167.132 37.8584ZM162.893 54.5615H170.478V40.2446H167.132C166.579 40.2446 166.239 40.515 166.112 41.0558L162.893 54.5615Z" fill="black"/>
<path d="M178.127 37.8584H184.82C186.138 37.8584 187.264 38.325 188.199 39.2583C189.134 40.1915 189.601 41.3157 189.601 42.6307C189.601 43.9457 188.974 45.2343 187.721 46.4963C188.974 47.7477 189.601 49.1635 189.601 50.7436V51.2209C189.601 52.801 189.038 54.1532 187.912 55.2773C186.796 56.3909 185.447 56.9477 183.864 56.9477H178.127V37.8584ZM180.518 40.2446V45.0169H184.82C185.479 45.0169 186.042 44.7836 186.51 44.3169C186.977 43.8503 187.211 43.2882 187.211 42.6307C187.211 41.9732 186.977 41.4111 186.51 40.9445C186.042 40.4779 185.479 40.2446 184.82 40.2446H180.518ZM180.518 47.403V54.5615H183.864C184.789 54.5615 185.575 54.238 186.223 53.5911C186.881 52.9336 187.211 52.1435 187.211 51.2209V50.7436C187.211 49.821 186.881 49.0362 186.223 48.3893C185.575 47.7318 184.789 47.403 183.864 47.403H180.518Z" fill="black"/>
<path d="M194.86 37.8584V51.7936L201.473 37.8584H203.943V56.9477H201.553V43.0125L195.099 56.9477L192.47 56.9317V37.8584H194.86Z" fill="black"/>
<path d="M209.489 37.8584L213.09 45.0169H214.222V37.8584H216.596V45.0169H217.743L221.345 37.8584H224.022L219.815 46.2099L224.022 56.9477H221.456L217.712 47.403H216.596V56.9477H214.222V47.403H213.122L209.377 56.9477H206.812L211.019 46.2099L206.812 37.8584H209.489Z" fill="black"/>
<path d="M226.89 54.466C227.103 54.466 227.305 54.5191 227.496 54.6251C227.698 54.7312 227.852 54.885 227.958 55.0865C228.075 55.2879 228.133 55.4947 228.133 55.7069C228.133 55.919 228.075 56.1258 227.958 56.3273C227.852 56.5181 227.698 56.6719 227.496 56.7886C227.305 56.8946 227.103 56.9477 226.89 56.9477C226.678 56.9477 226.476 56.8946 226.285 56.7886C226.083 56.6719 225.929 56.5181 225.823 56.3273C225.706 56.1258 225.647 55.919 225.647 55.7069C225.647 55.4947 225.706 55.2879 225.823 55.0865C225.929 54.885 226.083 54.7312 226.285 54.6251C226.476 54.5191 226.678 54.466 226.89 54.466Z" fill="black"/>
<defs>
<linearGradient id="paint0_linear" x1="118.001" y1="1.0166" x2="118.001" y2="235.372" gradientUnits="userSpaceOnUse">
<stop stop-color="#FEFFD1"/>
<stop offset="1" stop-color="#F8F9ED"/>
</linearGradient>
</defs>
</svg>
