<svg width="236" height="262" viewBox="0 0 236 262" fill="none" xmlns="http://www.w3.org/2000/svg">
<path d="M59.0564 235.372C27.05 235.372 1.01489 209.295 1.01489 177.237V59.1518C1.01489 27.0938 27.05 1.01672 59.0564 1.01672H176.945C208.951 1.01672 234.986 27.0938 234.986 59.1518V177.23C234.986 209.288 208.951 235.365 176.945 235.365H59.0564V235.372Z" fill="url(#paint0_linear)"/>
<path d="M176.951 2.03198C208.396 2.03198 233.978 27.6553 233.978 59.151V177.23C233.978 208.725 208.396 234.349 176.951 234.349H59.0558C27.6108 234.349 2.02871 208.725 2.02871 177.23V59.151C2.02871 27.6553 27.6108 2.03198 59.0558 2.03198H176.951ZM176.951 0H59.0558C26.4409 0 0 26.4835 0 59.151V177.23C0 209.897 26.4409 236.381 59.0558 236.381H176.944C209.559 236.381 236 209.897 236 177.23V59.151C236.007 26.4835 209.566 0 176.951 0Z" fill="black"/>
<path d="M12.1576 65.8579H18.8522C20.1698 65.8579 21.2962 66.3304 22.2313 67.2753C23.1665 68.2202 23.634 69.3584 23.634 70.6899C23.634 72.0214 23.0071 73.326 21.7532 74.6038C23.0071 75.8708 23.634 77.3043 23.634 78.9042V79.3874C23.634 80.9873 23.0708 82.3564 21.9444 83.4946C20.8287 84.6221 19.4791 85.1858 17.8958 85.1858H12.1576V65.8579ZM14.5485 68.2739V73.1059H18.8522C19.511 73.1059 20.0742 72.8696 20.5418 72.3972C21.0093 71.9247 21.2431 71.3556 21.2431 70.6899C21.2431 70.0242 21.0093 69.4551 20.5418 68.9826C20.0742 68.5101 19.511 68.2739 18.8522 68.2739H14.5485ZM14.5485 75.5219V82.7698H17.8958C18.8203 82.7698 19.6066 82.4423 20.2549 81.7873C20.9137 81.1216 21.2431 80.3216 21.2431 79.3874V78.9042C21.2431 77.9701 20.9137 77.1755 20.2549 76.5205C19.6066 75.8547 18.8203 75.5219 17.8958 75.5219H14.5485Z" fill="black"/>
<path d="M41.3268 65.8579H43.7178V85.1858H41.3268V65.8579ZM26.5031 85.1858V65.8579H28.8941V73.1059H32.2413C33.8247 73.1059 35.1742 73.675 36.29 74.8132C37.4164 75.9406 37.9796 77.3043 37.9796 78.9042V79.3874C37.9796 80.9873 37.4164 82.3564 36.29 83.4946C35.1742 84.6221 33.8247 85.1858 32.2413 85.1858H26.5031ZM32.2413 82.7698C33.1658 82.7698 33.9522 82.4423 34.6004 81.7873C35.2592 81.1216 35.5886 80.3216 35.5886 79.3874V78.9042C35.5886 77.9701 35.2592 77.1755 34.6004 76.5205C33.9522 75.8547 33.1658 75.5219 32.2413 75.5219H28.8941V82.7698H32.2413Z" fill="black"/>
<path d="M48.9778 65.8579V74.5877L55.1304 65.8579H58.0633L53.5206 72.3005L58.0633 85.1858H55.5289L51.831 74.7004L48.9778 78.7432V85.1858H46.5869V65.8579H48.9778Z" fill="black"/>
<path d="M68.0095 65.8579H72.4088V85.1858H70.0179V68.2739H68.0095C67.4357 68.2739 67.0957 68.5585 66.9894 69.1276L64.3116 82.3994C63.929 84.257 62.8026 85.1858 60.9324 85.1858V82.7698C61.5062 82.7698 61.8516 82.4853 61.9685 81.9162L64.7101 68.6444C65.0395 66.7867 66.1393 65.8579 68.0095 65.8579Z" fill="black"/>
<path d="M75.2779 82.6732C75.4905 82.6732 75.6924 82.7269 75.8836 82.8342C76.0855 82.9416 76.2396 83.0973 76.3459 83.3013C76.4628 83.5053 76.5212 83.7147 76.5212 83.9295C76.5212 84.1442 76.4628 84.3536 76.3459 84.5576C76.2396 84.7509 76.0855 84.9066 75.8836 85.0247C75.6924 85.1321 75.4905 85.1858 75.2779 85.1858C75.0654 85.1858 74.8635 85.1321 74.6722 85.0247C74.4703 84.9066 74.3163 84.7509 74.21 84.5576C74.0931 84.3536 74.0347 84.1442 74.0347 83.9295C74.0347 83.7147 74.0931 83.5053 74.21 83.3013C74.3163 83.0973 74.4703 82.9416 74.6722 82.8342C74.8635 82.7269 75.0654 82.6732 75.2779 82.6732Z" fill="black"/>
<path d="M99.4434 23.7661C99.4434 25.3068 98.88 26.6251 97.7533 27.7212C96.6372 28.8069 95.2873 29.3497 93.7035 29.3497C92.1197 29.3497 90.7645 28.8069 89.6378 27.7212C88.5217 26.6251 87.9636 25.3068 87.9636 23.7661V16.3213C87.9636 14.7806 88.5217 13.4675 89.6378 12.3818C90.7645 11.2857 92.1197 10.7377 93.7035 10.7377C95.2873 10.7377 96.6372 11.2857 97.7533 12.3818C98.88 13.4675 99.4434 14.7806 99.4434 16.3213H97.0518C97.0518 15.4217 96.7223 14.6566 96.0632 14.0258C95.4148 13.3847 94.6283 13.0642 93.7035 13.0642C92.7787 13.0642 91.9869 13.3847 91.3278 14.0258C90.6794 14.6566 90.3552 15.4217 90.3552 16.3213V23.7661C90.3552 24.6657 90.6794 25.436 91.3278 26.0771C91.9869 26.7078 92.7787 27.0232 93.7035 27.0232C94.6283 27.0232 95.4148 26.7078 96.0632 26.0771C96.7223 25.436 97.0518 24.6657 97.0518 23.7661H99.4434Z" fill="black"/>
<path d="M113.793 10.7377V13.0642H109.249V29.3497H106.857V13.0642H102.313V10.7377H113.793Z" fill="black"/>
<path d="M121.207 10.7377H123.599L128.143 29.3497H125.687L124.731 25.4722H120.075L119.118 29.3497H116.663L121.207 10.7377ZM120.633 23.1457H124.173L122.403 15.9025L120.633 23.1457Z" fill="black"/>
<path d="M142.492 10.7377V13.0642H137.948V29.3497H135.557V13.0642H131.013V10.7377H142.492Z" fill="black"/>
<path d="M145.362 26.9302C145.575 26.9302 145.777 26.9819 145.968 27.0853C146.17 27.1887 146.324 27.3386 146.431 27.5351C146.548 27.7315 146.606 27.9331 146.606 28.1399C146.606 28.3467 146.548 28.5484 146.431 28.7448C146.324 28.931 146.17 29.0809 145.968 29.1946C145.777 29.298 145.575 29.3497 145.362 29.3497C145.15 29.3497 144.948 29.298 144.757 29.1946C144.555 29.0809 144.4 28.931 144.294 28.7448C144.177 28.5484 144.119 28.3467 144.119 28.1399C144.119 27.9331 144.177 27.7315 144.294 27.5351C144.4 27.3386 144.555 27.1887 144.757 27.0853C144.948 26.9819 145.15 26.9302 145.362 26.9302Z" fill="black"/>
<rect x="26.8941" y="117.397" width="63.3946" height="194.5" rx="22" transform="rotate(-45 26.8941 117.397)" fill="url(#paint1_linear)" stroke="black" stroke-width="2"/>
<rect x="47.2966" y="98.1113" width="5.44955" height="36.3889" transform="rotate(-45 47.2966 98.1113)" fill="#010101"/>
<rect x="47.2966" y="98.1113" width="5.44955" height="36.3889" transform="rotate(-45 47.2966 98.1113)" stroke="black"/>
<path d="M167.132 65.8579H172.869V82.561H175.259V87.3333H172.869V84.9472H160.439L160.391 87.3333H158.048V82.561H160.439L163.785 68.4986C164.2 66.7382 165.315 65.8579 167.132 65.8579ZM162.893 82.561H170.478V68.2441H167.132C166.579 68.2441 166.239 68.5145 166.112 69.0554L162.893 82.561Z" fill="black"/>
<path d="M178.127 65.8579H184.82C186.138 65.8579 187.264 66.3246 188.199 67.2578C189.134 68.1911 189.601 69.3152 189.601 70.6302C189.601 71.9453 188.974 73.2338 187.721 74.4958C188.974 75.7472 189.601 77.163 189.601 78.7432V79.2204C189.601 80.8006 189.038 82.1527 187.912 83.2769C186.796 84.3904 185.447 84.9472 183.864 84.9472H178.127V65.8579ZM180.518 68.2441V73.0164H184.82C185.479 73.0164 186.042 72.7831 186.509 72.3165C186.977 71.8498 187.211 71.2878 187.211 70.6302C187.211 69.9727 186.977 69.4106 186.509 68.944C186.042 68.4774 185.479 68.2441 184.82 68.2441H180.518ZM180.518 75.4026V82.561H183.864C184.788 82.561 185.575 82.2376 186.223 81.5907C186.881 80.9331 187.211 80.1431 187.211 79.2204V78.7432C187.211 77.8205 186.881 77.0357 186.223 76.3888C185.575 75.7313 184.788 75.4026 183.864 75.4026H180.518Z" fill="black"/>
<path d="M194.86 65.8579V79.7931L201.473 65.8579H203.943V84.9472H201.553V71.012L195.099 84.9472L192.469 84.9313V65.8579H194.86Z" fill="black"/>
<path d="M209.489 65.8579L213.09 73.0164H214.222V65.8579H216.596V73.0164H217.743L221.345 65.8579H224.022L219.815 74.2095L224.022 84.9472H221.456L217.711 75.4026H216.596V84.9472H214.222V75.4026H213.122L209.377 84.9472H206.811L211.018 74.2095L206.811 65.8579H209.489Z" fill="black"/>
<path d="M226.89 82.4656C227.103 82.4656 227.305 82.5186 227.496 82.6247C227.698 82.7307 227.852 82.8845 227.958 83.086C228.075 83.2875 228.133 83.4943 228.133 83.7064C228.133 83.9185 228.075 84.1253 227.958 84.3268C227.852 84.5177 227.698 84.6714 227.496 84.7881C227.305 84.8942 227.103 84.9472 226.89 84.9472C226.678 84.9472 226.476 84.8942 226.285 84.7881C226.083 84.6714 225.929 84.5177 225.823 84.3268C225.706 84.1253 225.647 83.9185 225.647 83.7064C225.647 83.4943 225.706 83.2875 225.823 83.086C225.929 82.8845 226.083 82.7307 226.285 82.6247C226.476 82.5186 226.678 82.4656 226.89 82.4656Z" fill="black"/>
<defs>
<linearGradient id="paint0_linear" x1="118.001" y1="1.01672" x2="118.001" y2="235.372" gradientUnits="userSpaceOnUse">
<stop stop-color="#FEFFD1"/>
<stop offset="1" stop-color="#F8F9ED"/>
</linearGradient>
<linearGradient id="paint1_linear" x1="58.1771" y1="117.397" x2="58.1771" y2="313.897" gradientUnits="userSpaceOnUse">
<stop stop-color="#FAFBD2"/>
<stop offset="1" stop-color="white"/>
</linearGradient>
</defs>
</svg>
