<svg width="71" height="23" viewBox="0 0 71 23" fill="none" xmlns="http://www.w3.org/2000/svg">
<path d="M9.13213 0.858398H14.869V17.5615H17.2593V22.3338H14.869V19.9477H2.43917L2.39136 22.3338H0.0488281V17.5615H2.43917L5.78565 3.49908C6.19998 1.73863 7.31547 0.858398 9.13213 0.858398ZM4.89326 17.5615H12.4786V3.24456H9.13213C8.57969 3.24456 8.23973 3.51499 8.11225 4.05585L4.89326 17.5615Z" fill="black"/>
<path d="M20.1277 0.858398H26.8207C28.138 0.858398 29.2641 1.32502 30.199 2.25828C31.1339 3.19153 31.6013 4.31567 31.6013 5.63071C31.6013 6.94575 30.9745 8.23427 29.7209 9.49629C30.9745 10.7477 31.6013 12.1635 31.6013 13.7436V14.2209C31.6013 15.801 31.0383 17.1532 29.9122 18.2773C28.7967 19.3909 27.4475 19.9477 25.8645 19.9477H20.1277V0.858398ZM22.518 3.24456V8.01687H26.8207C27.4793 8.01687 28.0424 7.78356 28.5098 7.31693C28.9773 6.8503 29.211 6.28823 29.211 5.63071C29.211 4.97319 28.9773 4.41112 28.5098 3.94449C28.0424 3.47787 27.4793 3.24456 26.8207 3.24456H22.518ZM22.518 10.403V17.5615H25.8645C26.7888 17.5615 27.5749 17.238 28.223 16.5911C28.8817 15.9336 29.211 15.1435 29.211 14.2209V13.7436C29.211 12.821 28.8817 12.0362 28.223 11.3893C27.5749 10.7318 26.7888 10.403 25.8645 10.403H22.518Z" fill="black"/>
<path d="M36.8601 0.858398V14.7936L43.4734 0.858398H45.9434V19.9477H43.5531V6.0125L37.0991 19.9477L34.4698 19.9317V0.858398H36.8601Z" fill="black"/>
<path d="M51.489 0.858398L55.0904 8.01687H56.2219V0.858398H58.5963V8.01687H59.7436L63.3451 0.858398H66.0223L61.8153 9.20995L66.0223 19.9477H63.4566L59.7118 10.403H58.5963V19.9477H56.2219V10.403H55.1223L51.3774 19.9477H48.8118L53.0188 9.20995L48.8118 0.858398H51.489Z" fill="black"/>
<path d="M68.8907 17.466C69.1032 17.466 69.305 17.5191 69.4962 17.6251C69.6981 17.7312 69.8521 17.885 69.9584 18.0865C70.0752 18.2879 70.1337 18.4947 70.1337 18.7069C70.1337 18.919 70.0752 19.1258 69.9584 19.3273C69.8521 19.5181 69.6981 19.6719 69.4962 19.7886C69.305 19.8946 69.1032 19.9477 68.8907 19.9477C68.6782 19.9477 68.4764 19.8946 68.2851 19.7886C68.0833 19.6719 67.9292 19.5181 67.823 19.3273C67.7061 19.1258 67.6477 18.919 67.6477 18.7069C67.6477 18.4947 67.7061 18.2879 67.823 18.0865C67.9292 17.885 68.0833 17.7312 68.2851 17.6251C68.4764 17.5191 68.6782 17.466 68.8907 17.466Z" fill="black"/>
</svg>
