<svg width="144" height="144" viewBox="0 0 144 144" fill="none" xmlns="http://www.w3.org/2000/svg">
<rect width="144" height="143.213" rx="25" fill="#FFD337"/>
<path d="M119.606 71.6064C119.606 98.1161 98.1161 119.606 71.6064 119.606C45.0968 119.606 23.6064 98.1161 23.6064 71.6064C23.6064 45.0968 45.0968 23.6064 71.6064 23.6064C98.1161 23.6064 119.606 45.0968 119.606 71.6064Z" fill="#A8A8A8"/>
<path d="M115.672 71.6066C115.672 95.9433 95.9433 115.672 71.6066 115.672C47.2698 115.672 27.541 95.9433 27.541 71.6066C27.541 47.2698 47.2698 27.541 71.6066 27.541C95.9433 27.541 115.672 47.2698 115.672 71.6066Z" fill="#FF0000"/>
<path d="M37.7523 73.2498C37.7523 74.0025 37.4829 74.6466 36.9441 75.182C36.4104 75.7125 35.7648 75.9777 35.0074 75.9777C34.25 75.9777 33.6019 75.7125 33.0631 75.182C32.5293 74.6466 32.2625 74.0025 32.2625 73.2498V69.6126C32.2625 68.8599 32.5293 68.2184 33.0631 67.688C33.6019 67.1525 34.25 66.8848 35.0074 66.8848C35.7648 66.8848 36.4104 67.1525 36.9441 67.688C37.4829 68.2184 37.7523 68.8599 37.7523 69.6126H36.6086C36.6086 69.1731 36.451 68.7993 36.1359 68.4912C35.8258 68.178 35.4496 68.0214 35.0074 68.0214C34.5652 68.0214 34.1865 68.178 33.8713 68.4912C33.5612 68.7993 33.4062 69.1731 33.4062 69.6126V73.2498C33.4062 73.6893 33.5612 74.0656 33.8713 74.3788C34.1865 74.687 34.5652 74.841 35.0074 74.841C35.4496 74.841 35.8258 74.687 36.1359 74.3788C36.451 74.0656 36.6086 73.6893 36.6086 73.2498H37.7523Z" fill="white"/>
<path d="M42.5103 66.8848H44.6147V75.9777H43.471V68.0214H42.5103C42.2358 68.0214 42.0731 68.1552 42.0223 68.423L40.7413 74.6668C40.5583 75.5407 40.0195 75.9777 39.1248 75.9777V74.841C39.3993 74.841 39.5645 74.7072 39.6204 74.4394L40.9319 68.1957C41.0895 67.3217 41.6156 66.8848 42.5103 66.8848Z" fill="white"/>
<path d="M50.9052 66.8848V68.0214H47.1309V70.2946H50.3334V71.4312H47.1309V74.841H51.4771V75.9777H45.9872V66.8848H50.9052Z" fill="white"/>
<path d="M57.1957 66.8848H59.9407V74.841H61.0844V77.1143H59.9407V75.9777H53.9933L53.9704 77.1143H52.8496V74.841H53.9933L55.5945 68.1426C55.7928 67.304 56.3265 66.8848 57.1957 66.8848ZM55.1675 74.841H58.797V68.0214H57.1957C56.9314 68.0214 56.7687 68.1502 56.7077 68.4078L55.1675 74.841Z" fill="white"/>
<path d="M62.4569 74.7956C62.5586 74.7956 62.6551 74.8208 62.7466 74.8714C62.8432 74.9219 62.9169 74.9951 62.9678 75.0911C63.0237 75.1871 63.0516 75.2856 63.0516 75.3866C63.0516 75.4877 63.0237 75.5862 62.9678 75.6821C62.9169 75.7731 62.8432 75.8463 62.7466 75.9019C62.6551 75.9524 62.5586 75.9777 62.4569 75.9777C62.3552 75.9777 62.2586 75.9524 62.1671 75.9019C62.0706 75.8463 61.9969 75.7731 61.946 75.6821C61.8901 75.5862 61.8621 75.4877 61.8621 75.3866C61.8621 75.2856 61.8901 75.1871 61.946 75.0911C61.9969 74.9951 62.0706 74.9219 62.1671 74.8714C62.2586 74.8208 62.3552 74.7956 62.4569 74.7956Z" fill="white"/>
<path d="M76.6391 66.8848V75.9777H75.4954V68.0214H72.293V75.9777H71.1492V66.8848H76.6391Z" fill="white"/>
<path d="M80.1847 66.8848H81.3284L83.5015 75.9777H82.3273L81.8698 74.0833H79.6433L79.1858 75.9777H78.0116L80.1847 66.8848ZM79.9102 72.9467H81.6029L80.7565 69.408L79.9102 72.9467Z" fill="white"/>
<path d="M86.0177 66.8848V70.2946H89.2201V66.8848H90.3639V75.9777H89.2201V71.4312H86.0177V75.9777H84.874V66.8848H86.0177Z" fill="white"/>
<path d="M96.6544 66.8848V68.0214H92.8801V70.2946H96.0825V71.4312H92.8801V74.841H97.2262V75.9777H91.7363V66.8848H96.6544Z" fill="white"/>
<path d="M101.984 66.8848H104.089V75.9777H102.945V68.0214H101.984C101.71 68.0214 101.547 68.1552 101.496 68.423L100.215 74.6668C100.032 75.5407 99.4934 75.9777 98.5987 75.9777V74.841C98.8732 74.841 99.0384 74.7072 99.0943 74.4394L100.406 68.1957C100.563 67.3217 101.09 66.8848 101.984 66.8848Z" fill="white"/>
<path d="M105.461 75.9777V66.8848H106.605V70.2946H108.206C108.963 70.2946 109.609 70.5623 110.143 71.0978C110.682 71.6282 110.951 72.2698 110.951 73.0225V73.2498C110.951 74.0025 110.682 74.6466 110.143 75.182C109.609 75.7125 108.963 75.9777 108.206 75.9777H105.461ZM108.206 74.841C108.648 74.841 109.024 74.687 109.335 74.3788C109.65 74.0656 109.807 73.6893 109.807 73.2498V73.0225C109.807 72.583 109.65 72.2092 109.335 71.901C109.024 71.5878 108.648 71.4312 108.206 71.4312H106.605V74.841H108.206Z" fill="white"/>
</svg>
