<svg width="183" height="182" viewBox="0 0 183 182" fill="none" xmlns="http://www.w3.org/2000/svg">
<rect width="183" height="182" rx="40" fill="#FFD337"/>
<path d="M152 91C152 124.689 124.689 152 91 152C57.3106 152 30 124.689 30 91C30 57.3106 57.3106 30 91 30C124.689 30 152 57.3106 152 91Z" fill="#A8A8A8"/>
<path d="M147 91C147 121.928 121.928 147 91 147C60.0721 147 35 121.928 35 91C35 60.0721 60.0721 35 91 35C121.928 35 147 60.0721 147 91Z" fill="#FF0000"/>
<path d="M47.9767 93.0889C47.9767 94.0454 47.6344 94.864 46.9496 95.5444C46.2713 96.2185 45.4509 96.5556 44.4884 96.5556C43.5258 96.5556 42.7022 96.2185 42.0174 95.5444C41.3391 94.864 41 94.0454 41 93.0889V88.4667C41 87.5101 41.3391 86.6948 42.0174 86.0207C42.7022 85.3402 43.5258 85 44.4884 85C45.4509 85 46.2713 85.3402 46.9496 86.0207C47.6344 86.6948 47.9767 87.5101 47.9767 88.4667H46.5233C46.5233 87.9081 46.323 87.4331 45.9225 87.0415C45.5284 86.6435 45.0504 86.4444 44.4884 86.4444C43.9264 86.4444 43.4451 86.6435 43.0446 87.0415C42.6505 87.4331 42.4535 87.9081 42.4535 88.4667V93.0889C42.4535 93.6474 42.6505 94.1257 43.0446 94.5237C43.4451 94.9153 43.9264 95.1111 44.4884 95.1111C45.0504 95.1111 45.5284 94.9153 45.9225 94.5237C46.323 94.1257 46.5233 93.6474 46.5233 93.0889H47.9767Z" fill="white"/>
<path d="M54.0233 85H56.6977V96.5556H55.2442V86.4444H54.0233C53.6744 86.4444 53.4677 86.6146 53.4031 86.9548L51.7752 94.8896C51.5426 96.0002 50.8579 96.5556 49.7209 96.5556V95.1111C50.0698 95.1111 50.2797 94.941 50.3508 94.6007L52.0174 86.6659C52.2177 85.5553 52.8863 85 54.0233 85Z" fill="white"/>
<path d="M64.6919 85V86.4444H59.8953V89.3333H63.9651V90.7778H59.8953V95.1111H65.4186V96.5556H58.4419V85H64.6919Z" fill="white"/>
<path d="M72.686 85H76.1744V95.1111H77.6279V98H76.1744V96.5556H68.6163L68.5872 98H67.1628V95.1111H68.6163L70.6512 86.5985C70.9031 85.5328 71.5814 85 72.686 85ZM70.1085 95.1111H74.7209V86.4444H72.686C72.3501 86.4444 72.1434 86.6081 72.0659 86.9356L70.1085 95.1111Z" fill="white"/>
<path d="M79.3721 95.0533C79.5013 95.0533 79.624 95.0854 79.7403 95.1496C79.863 95.2138 79.9567 95.3069 80.0213 95.4289C80.0924 95.5509 80.1279 95.676 80.1279 95.8044C80.1279 95.9328 80.0924 96.058 80.0213 96.18C79.9567 96.2956 79.863 96.3886 79.7403 96.4593C79.624 96.5235 79.5013 96.5556 79.3721 96.5556C79.2429 96.5556 79.1202 96.5235 79.0039 96.4593C78.8811 96.3886 78.7875 96.2956 78.7229 96.18C78.6518 96.058 78.6163 95.9328 78.6163 95.8044C78.6163 95.676 78.6518 95.5509 78.7229 95.4289C78.7875 95.3069 78.8811 95.2138 79.0039 95.1496C79.1202 95.0854 79.2429 95.0533 79.3721 95.0533Z" fill="white"/>
<path d="M97.3953 85V96.5556H95.9419V86.4444H91.8721V96.5556H90.4186V85H97.3953Z" fill="white"/>
<path d="M101.901 85H103.355L106.116 96.5556H104.624L104.043 94.1481H101.213L100.632 96.5556H99.1395L101.901 85ZM101.552 92.7037H103.703L102.628 88.2067L101.552 92.7037Z" fill="white"/>
<path d="M109.314 85V89.3333H113.384V85H114.837V96.5556H113.384V90.7778H109.314V96.5556H107.86V85H109.314Z" fill="white"/>
<path d="M122.831 85V86.4444H118.035V89.3333H122.105V90.7778H118.035V95.1111H123.558V96.5556H116.581V85H122.831Z" fill="white"/>
<path d="M129.605 85H132.279V96.5556H130.826V86.4444H129.605C129.256 86.4444 129.049 86.6146 128.984 86.9548L127.357 94.8896C127.124 96.0002 126.439 96.5556 125.302 96.5556V95.1111C125.651 95.1111 125.861 94.941 125.932 94.6007L127.599 86.6659C127.799 85.5553 128.468 85 129.605 85Z" fill="white"/>
<path d="M134.023 96.5556V85H135.477V89.3333H137.512C138.474 89.3333 139.295 89.6736 139.973 90.3541C140.658 91.0281 141 91.8435 141 92.8V93.0889C141 94.0454 140.658 94.864 139.973 95.5444C139.295 96.2185 138.474 96.5556 137.512 96.5556H134.023ZM137.512 95.1111C138.074 95.1111 138.552 94.9153 138.946 94.5237C139.346 94.1257 139.547 93.6474 139.547 93.0889V92.8C139.547 92.2415 139.346 91.7664 138.946 91.3748C138.552 90.9768 138.074 90.7778 137.512 90.7778H135.477V95.1111H137.512Z" fill="white"/>
</svg>
