<svg width="65" height="21" viewBox="0 0 65 21" fill="none" xmlns="http://www.w3.org/2000/svg">
<path d="M0.157227 0.858398H6.85181C8.16947 0.858398 9.29586 1.33086 10.231 2.27578C11.1661 3.22069 11.6337 4.35889 11.6337 5.69037C11.6337 7.02184 11.0067 8.32647 9.7528 9.60426C11.0067 10.8713 11.6337 12.3048 11.6337 13.9047V14.3879C11.6337 15.9878 11.0705 17.3569 9.94407 18.4951C8.82831 19.6225 7.47876 20.1863 5.89544 20.1863H0.157227V0.858398ZM2.54815 3.27438V8.10635H6.85181C7.51064 8.10635 8.07384 7.87012 8.54139 7.39766C9.00895 6.9252 9.24273 6.3561 9.24273 5.69037C9.24273 5.02463 9.00895 4.45553 8.54139 3.98307C8.07384 3.51061 7.51064 3.27438 6.85181 3.27438H2.54815ZM2.54815 10.5223V17.7703H5.89544C6.81993 17.7703 7.60628 17.4428 8.25448 16.7878C8.91332 16.122 9.24273 15.3221 9.24273 14.3879V13.9047C9.24273 12.9705 8.91332 12.1759 8.25448 11.5209C7.60628 10.8552 6.81993 10.5223 5.89544 10.5223H2.54815Z" fill="black"/>
<path d="M29.3265 0.858398H31.7174V20.1863H29.3265V0.858398ZM14.5028 20.1863V0.858398H16.8937V8.10635H20.241C21.8243 8.10635 23.1738 8.67545 24.2896 9.81364C25.416 10.9411 25.9792 12.3048 25.9792 13.9047V14.3879C25.9792 15.9878 25.416 17.3569 24.2896 18.4951C23.1738 19.6225 21.8243 20.1863 20.241 20.1863H14.5028ZM20.241 17.7703C21.1655 17.7703 21.9518 17.4428 22.6 16.7878C23.2589 16.122 23.5883 15.3221 23.5883 14.3879V13.9047C23.5883 12.9705 23.2589 12.1759 22.6 11.5209C21.9518 10.8552 21.1655 10.5223 20.241 10.5223H16.8937V17.7703H20.241Z" fill="black"/>
<path d="M36.9774 0.858398V9.58815L43.1301 0.858398H46.0629L41.5202 7.30102L46.0629 20.1863H43.5286L39.8306 9.7009L36.9774 13.7436V20.1863H34.5865V0.858398H36.9774Z" fill="black"/>
<path d="M56.0092 0.858398H60.4085V20.1863H58.0176V3.27438H56.0092C55.4354 3.27438 55.0953 3.55893 54.989 4.12803L52.3112 17.3998C51.9287 19.2575 50.8023 20.1863 48.932 20.1863V17.7703C49.5059 17.7703 49.8512 17.4857 49.9681 16.9166L52.7097 3.64483C53.0391 1.78721 54.1389 0.858398 56.0092 0.858398Z" fill="black"/>
<path d="M63.2776 17.6736C63.4901 17.6736 63.692 17.7273 63.8833 17.8347C64.0852 17.9421 64.2393 18.0978 64.3455 18.3018C64.4624 18.5058 64.5209 18.7152 64.5209 18.93C64.5209 19.1447 64.4624 19.3541 64.3455 19.5581C64.2393 19.7514 64.0852 19.9071 63.8833 20.0252C63.692 20.1326 63.4901 20.1863 63.2776 20.1863C63.0651 20.1863 62.8632 20.1326 62.6719 20.0252C62.47 19.9071 62.3159 19.7514 62.2096 19.5581C62.0927 19.3541 62.0343 19.1447 62.0343 18.93C62.0343 18.7152 62.0927 18.5058 62.2096 18.3018C62.3159 18.0978 62.47 17.9421 62.6719 17.8347C62.8632 17.7273 63.0651 17.6736 63.2776 17.6736Z" fill="black"/>
</svg>
