<svg width="79" height="12" viewBox="0 0 79 12" fill="none" xmlns="http://www.w3.org/2000/svg">
<path d="M5.75259 7.24979C5.75259 8.00248 5.48318 8.64656 4.94436 9.18203C4.41062 9.71245 3.76505 9.97766 3.00764 9.97766C2.25024 9.97766 1.60213 9.71245 1.06331 9.18203C0.529565 8.64656 0.262695 8.00248 0.262695 7.24979V3.61263C0.262695 2.85994 0.529565 2.21839 1.06331 1.68797C1.60213 1.1525 2.25024 0.884766 3.00764 0.884766C3.76505 0.884766 4.41062 1.1525 4.94436 1.68797C5.48318 2.21839 5.75259 2.85994 5.75259 3.61263H4.60886C4.60886 3.17314 4.45128 2.79933 4.13612 2.49118C3.82605 2.17798 3.44989 2.02138 3.00764 2.02138C2.5654 2.02138 2.1867 2.17798 1.87154 2.49118C1.56146 2.79933 1.40642 3.17314 1.40642 3.61263V7.24979C1.40642 7.68928 1.56146 8.06563 1.87154 8.37883C2.1867 8.68698 2.5654 8.84105 3.00764 8.84105C3.44989 8.84105 3.82605 8.68698 4.13612 8.37883C4.45128 8.06563 4.60886 7.68928 4.60886 7.24979H5.75259Z" fill="white"/>
<path d="M10.5105 0.884766H12.615V9.97766H11.4712V2.02138H10.5105C10.236 2.02138 10.0733 2.15525 10.0225 2.42298L8.74154 8.66677C8.55854 9.5407 8.01972 9.97766 7.12507 9.97766V8.84105C7.39956 8.84105 7.56477 8.70718 7.62068 8.43945L8.93216 2.19566C9.08974 1.32173 9.61585 0.884766 10.5105 0.884766Z" fill="white"/>
<path d="M18.9055 0.884766V2.02138H15.1312V4.2946H18.3336V5.43121H15.1312V8.84105H19.4773V9.97766H13.9874V0.884766H18.9055Z" fill="white"/>
<path d="M25.196 0.884766H27.9409V8.84105H29.0847V11.1143H27.9409V9.97766H21.9935L21.9707 11.1143H20.8498V8.84105H21.9935L23.5948 2.14262C23.793 1.30405 24.3267 0.884766 25.196 0.884766ZM23.1678 8.84105H26.7972V2.02138H25.196C24.9317 2.02138 24.769 2.15019 24.708 2.40783L23.1678 8.84105Z" fill="white"/>
<path d="M30.4571 8.79559C30.5588 8.79559 30.6554 8.82084 30.7469 8.87136C30.8435 8.92188 30.9172 8.99512 30.968 9.0911C31.0239 9.18709 31.0519 9.28559 31.0519 9.38662C31.0519 9.48766 31.0239 9.58616 30.968 9.68214C30.9172 9.77307 30.8435 9.84632 30.7469 9.90189C30.6554 9.9524 30.5588 9.97766 30.4571 9.97766C30.3555 9.97766 30.2589 9.9524 30.1674 9.90189C30.0708 9.84632 29.9971 9.77307 29.9463 9.68214C29.8904 9.58616 29.8624 9.48766 29.8624 9.38662C29.8624 9.28559 29.8904 9.18709 29.9463 9.0911C29.9971 8.99512 30.0708 8.92188 30.1674 8.87136C30.2589 8.82084 30.3555 8.79559 30.4571 8.79559Z" fill="white"/>
<path d="M44.6394 0.884766V9.97766H43.4956V2.02138H40.2932V9.97766H39.1495V0.884766H44.6394Z" fill="white"/>
<path d="M48.1849 0.884766H49.3287L51.5017 9.97766H50.3275L49.87 8.08331H47.6436L47.1861 9.97766H46.0118L48.1849 0.884766ZM47.9104 6.9467H49.6031L48.7568 3.40804L47.9104 6.9467Z" fill="white"/>
<path d="M54.0179 0.884766V4.2946H57.2204V0.884766H58.3641V9.97766H57.2204V5.43121H54.0179V9.97766H52.8742V0.884766H54.0179Z" fill="white"/>
<path d="M64.6546 0.884766V2.02138H60.8803V4.2946H64.0828V5.43121H60.8803V8.84105H65.2265V9.97766H59.7366V0.884766H64.6546Z" fill="white"/>
<path d="M69.9844 0.884766H72.0889V9.97766H70.9451V2.02138H69.9844C69.7099 2.02138 69.5472 2.15525 69.4964 2.42298L68.2154 8.66677C68.0324 9.5407 67.4936 9.97766 66.599 9.97766V8.84105C66.8735 8.84105 67.0387 8.70718 67.0946 8.43945L68.4061 2.19566C68.5636 1.32173 69.0897 0.884766 69.9844 0.884766Z" fill="white"/>
<path d="M73.4613 9.97766V0.884766H74.6051V4.2946H76.2063C76.9637 4.2946 77.6093 4.56234 78.143 5.09781C78.6818 5.62823 78.9512 6.26978 78.9512 7.02247V7.24979C78.9512 8.00248 78.6818 8.64656 78.143 9.18203C77.6093 9.71245 76.9637 9.97766 76.2063 9.97766H73.4613ZM76.2063 8.84105C76.6485 8.84105 77.0247 8.68698 77.3348 8.37883C77.6499 8.06563 77.8075 7.68928 77.8075 7.24979V7.02247C77.8075 6.58298 77.6499 6.20916 77.3348 5.90101C77.0247 5.58781 76.6485 5.43121 76.2063 5.43121H74.6051V8.84105H76.2063Z" fill="white"/>
</svg>
