<svg width="144" height="151" viewBox="0 0 144 151" fill="none" xmlns="http://www.w3.org/2000/svg">
<ellipse cx="72" cy="75.5" rx="72" ry="75.5" fill="white"/>
<mask id="mask0" mask-type="alpha" maskUnits="userSpaceOnUse" x="0" y="0" width="144" height="151">
<ellipse cx="71.8742" cy="75.5" rx="71.8742" ry="75.5" fill="white"/>
</mask>
<g mask="url(#mask0)">
<ellipse cx="42.0192" cy="60.8934" rx="4.53942" ry="4.5604" fill="black"/>
<ellipse cx="42.0192" cy="0.848488" rx="4.53942" ry="4.5604" fill="black"/>
<ellipse cx="42.0192" cy="120.18" rx="4.53942" ry="4.5604" fill="black"/>
<ellipse cx="104.562" cy="60.8934" rx="4.53942" ry="4.5604" fill="black"/>
<ellipse cx="104.562" cy="0.848488" rx="4.53942" ry="4.5604" fill="black"/>
<ellipse cx="104.562" cy="120.18" rx="4.53942" ry="4.5604" fill="black"/>
<ellipse cx="73.2906" cy="60.8934" rx="4.53942" ry="4.5604" fill="black"/>
<ellipse cx="73.2906" cy="0.848488" rx="4.53942" ry="4.5604" fill="black"/>
<ellipse cx="73.2906" cy="120.18" rx="4.53942" ry="4.5604" fill="black"/>
<ellipse cx="135.834" cy="60.8934" rx="4.53942" ry="4.5604" fill="black"/>
<ellipse cx="10.7474" cy="60.8934" rx="4.53942" ry="4.5604" fill="black"/>
<ellipse cx="10.7474" cy="0.848488" rx="4.53942" ry="4.5604" fill="black"/>
<ellipse cx="135.834" cy="0.848488" rx="4.53942" ry="4.5604" fill="black"/>
<ellipse cx="135.834" cy="120.18" rx="4.53942" ry="4.5604" fill="black"/>
<ellipse cx="10.7474" cy="120.18" rx="4.53942" ry="4.5604" fill="black"/>
<ellipse cx="73.2906" cy="90.536" rx="4.53942" ry="4.5604" fill="black"/>
<ellipse cx="73.2906" cy="30.4901" rx="4.53942" ry="4.5604" fill="black"/>
<ellipse cx="73.2906" cy="149.821" rx="4.53942" ry="4.5604" fill="black"/>
<ellipse cx="135.834" cy="90.536" rx="4.53942" ry="4.5604" fill="black"/>
<ellipse cx="10.7474" cy="90.536" rx="4.53942" ry="4.5604" fill="black"/>
<ellipse cx="10.7474" cy="30.4901" rx="4.53942" ry="4.5604" fill="black"/>
<ellipse cx="135.834" cy="30.4901" rx="4.53942" ry="4.5604" fill="black"/>
<ellipse cx="135.834" cy="149.821" rx="4.53942" ry="4.5604" fill="black"/>
<ellipse cx="10.7474" cy="149.821" rx="4.53942" ry="4.5604" fill="black"/>
<ellipse cx="42.0192" cy="90.536" rx="4.53942" ry="4.5604" fill="black"/>
<ellipse cx="42.0192" cy="30.4901" rx="4.53942" ry="4.5604" fill="black"/>
<ellipse cx="42.0192" cy="149.821" rx="4.53942" ry="4.5604" fill="black"/>
<ellipse cx="104.562" cy="90.536" rx="4.53942" ry="4.5604" fill="black"/>
<ellipse cx="104.562" cy="30.4901" rx="4.53942" ry="4.5604" fill="black"/>
<ellipse cx="104.562" cy="149.821" rx="4.53942" ry="4.5604" fill="black"/>
<ellipse cx="57.6549" cy="60.8934" rx="4.53942" ry="4.5604" fill="black"/>
<ellipse cx="57.6549" cy="0.848488" rx="4.53942" ry="4.5604" fill="black"/>
<ellipse cx="57.6549" cy="120.18" rx="4.53942" ry="4.5604" fill="black"/>
<ellipse cx="120.199" cy="60.8934" rx="4.53942" ry="4.5604" fill="black"/>
<ellipse cx="120.199" cy="0.848488" rx="4.53942" ry="4.5604" fill="black"/>
<ellipse cx="120.199" cy="120.18" rx="4.53942" ry="4.5604" fill="black"/>
<ellipse cx="88.9269" cy="60.8934" rx="4.53942" ry="4.5604" fill="black"/>
<ellipse cx="88.9269" cy="0.848488" rx="4.53942" ry="4.5604" fill="black"/>
<ellipse cx="88.9269" cy="120.18" rx="4.53942" ry="4.5604" fill="black"/>
<ellipse cx="26.3832" cy="60.8934" rx="4.53942" ry="4.5604" fill="black"/>
<ellipse cx="26.3832" cy="0.848488" rx="4.53942" ry="4.5604" fill="black"/>
<ellipse cx="26.3832" cy="120.18" rx="4.53942" ry="4.5604" fill="black"/>
<ellipse cx="88.9269" cy="90.536" rx="4.53942" ry="4.5604" fill="black"/>
<ellipse cx="88.9269" cy="30.4901" rx="4.53942" ry="4.5604" fill="black"/>
<ellipse cx="88.9269" cy="149.821" rx="4.53942" ry="4.5604" fill="black"/>
<ellipse cx="26.3832" cy="90.536" rx="4.53942" ry="4.5604" fill="black"/>
<ellipse cx="26.3832" cy="30.4901" rx="4.53942" ry="4.5604" fill="black"/>
<ellipse cx="26.3832" cy="149.821" rx="4.53942" ry="4.5604" fill="black"/>
<ellipse cx="57.6549" cy="90.536" rx="4.53942" ry="4.5604" fill="black"/>
<ellipse cx="57.6549" cy="30.4901" rx="4.53942" ry="4.5604" fill="black"/>
<ellipse cx="57.6549" cy="149.821" rx="4.53942" ry="4.5604" fill="black"/>
<ellipse cx="120.199" cy="90.536" rx="4.53942" ry="4.5604" fill="black"/>
<ellipse cx="120.199" cy="30.4901" rx="4.53942" ry="4.5604" fill="black"/>
<ellipse cx="120.199" cy="149.821" rx="4.53942" ry="4.5604" fill="black"/>
<ellipse cx="57.6549" cy="76.0946" rx="4.53942" ry="4.5604" fill="black"/>
<ellipse cx="57.6549" cy="16.0497" rx="4.53942" ry="4.5604" fill="black"/>
<ellipse cx="57.6549" cy="135.38" rx="4.53942" ry="4.5604" fill="black"/>
<ellipse cx="120.199" cy="76.0946" rx="4.53942" ry="4.5604" fill="black"/>
<ellipse cx="120.199" cy="16.0497" rx="4.53942" ry="4.5604" fill="black"/>
<ellipse cx="120.199" cy="135.38" rx="4.53942" ry="4.5604" fill="black"/>
<ellipse cx="88.9269" cy="76.0946" rx="4.53942" ry="4.5604" fill="black"/>
<ellipse cx="88.9269" cy="16.0497" rx="4.53942" ry="4.5604" fill="black"/>
<ellipse cx="88.9269" cy="135.38" rx="4.53942" ry="4.5604" fill="black"/>
<ellipse cx="26.3832" cy="76.0946" rx="4.53942" ry="4.5604" fill="black"/>
<ellipse cx="26.3832" cy="16.0497" rx="4.53942" ry="4.5604" fill="black"/>
<ellipse cx="26.3832" cy="135.38" rx="4.53942" ry="4.5604" fill="black"/>
<ellipse cx="88.9269" cy="105.738" rx="4.53942" ry="4.5604" fill="black"/>
<ellipse cx="88.9269" cy="45.6922" rx="4.53942" ry="4.5604" fill="black"/>
<ellipse cx="26.3832" cy="105.738" rx="4.53942" ry="4.5604" fill="black"/>
<ellipse cx="26.3832" cy="45.6922" rx="4.53942" ry="4.5604" fill="black"/>
<ellipse cx="57.6549" cy="105.738" rx="4.53942" ry="4.5604" fill="black"/>
<ellipse cx="57.6549" cy="45.6922" rx="4.53942" ry="4.5604" fill="black"/>
<ellipse cx="120.199" cy="105.738" rx="4.53942" ry="4.5604" fill="black"/>
<ellipse cx="120.199" cy="45.6922" rx="4.53942" ry="4.5604" fill="black"/>
<ellipse cx="42.0192" cy="76.0946" rx="4.53942" ry="4.5604" fill="black"/>
<ellipse cx="42.0192" cy="16.0497" rx="4.53942" ry="4.5604" fill="black"/>
<ellipse cx="42.0192" cy="135.38" rx="4.53942" ry="4.5604" fill="black"/>
<ellipse cx="104.562" cy="76.0946" rx="4.53942" ry="4.5604" fill="black"/>
<ellipse cx="104.562" cy="16.0497" rx="4.53942" ry="4.5604" fill="black"/>
<ellipse cx="104.562" cy="135.38" rx="4.53942" ry="4.5604" fill="black"/>
<ellipse cx="73.2906" cy="76.0946" rx="4.53942" ry="4.5604" fill="black"/>
<ellipse cx="73.2906" cy="16.0497" rx="4.53942" ry="4.5604" fill="black"/>
<ellipse cx="73.2906" cy="135.38" rx="4.53942" ry="4.5604" fill="black"/>
<ellipse cx="135.834" cy="76.0946" rx="4.53942" ry="4.5604" fill="black"/>
<ellipse cx="10.7474" cy="76.0946" rx="4.53942" ry="4.5604" fill="black"/>
<ellipse cx="10.7474" cy="16.0497" rx="4.53942" ry="4.5604" fill="black"/>
<ellipse cx="135.834" cy="16.0497" rx="4.53942" ry="4.5604" fill="black"/>
<ellipse cx="135.834" cy="135.38" rx="4.53942" ry="4.5604" fill="black"/>
<ellipse cx="10.7474" cy="135.38" rx="4.53942" ry="4.5604" fill="black"/>
<ellipse cx="73.2906" cy="105.738" rx="4.53942" ry="4.5604" fill="black"/>
<ellipse cx="73.2906" cy="45.6922" rx="4.53942" ry="4.5604" fill="black"/>
<ellipse cx="135.834" cy="105.738" rx="4.53942" ry="4.5604" fill="black"/>
<ellipse cx="10.7474" cy="105.738" rx="4.53942" ry="4.5604" fill="black"/>
<ellipse cx="10.7474" cy="45.6922" rx="4.53942" ry="4.5604" fill="black"/>
<ellipse cx="135.834" cy="45.6922" rx="4.53942" ry="4.5604" fill="black"/>
<ellipse cx="42.0192" cy="105.738" rx="4.53942" ry="4.5604" fill="black"/>
<ellipse cx="42.0192" cy="45.6922" rx="4.53942" ry="4.5604" fill="black"/>
<ellipse cx="104.562" cy="105.738" rx="4.53942" ry="4.5604" fill="black"/>
<ellipse cx="104.562" cy="45.6922" rx="4.53942" ry="4.5604" fill="black"/>
</g>
</svg>
