<svg width="60" height="20" viewBox="0 0 60 20" fill="none" xmlns="http://www.w3.org/2000/svg">
<path d="M12.4436 13.7657C12.4436 15.3064 11.8803 16.6247 10.7535 17.7208C9.63746 18.8065 8.28753 19.3493 6.70375 19.3493C5.11996 19.3493 3.76472 18.8065 2.638 17.7208C1.52191 16.6247 0.963867 15.3064 0.963867 13.7657V6.32091C0.963867 4.78025 1.52191 3.46707 2.638 2.38137C3.76472 1.28533 5.11996 0.737305 6.70375 0.737305C8.28753 0.737305 9.63746 1.28533 10.7535 2.38137C11.8803 3.46707 12.4436 4.78025 12.4436 6.32091H10.052C10.052 5.42133 9.7225 4.65617 9.06347 4.02543C8.41508 3.38435 7.6285 3.06381 6.70375 3.06381C5.77899 3.06381 4.9871 3.38435 4.32807 4.02543C3.67968 4.65617 3.35548 5.42133 3.35548 6.32091V13.7657C3.35548 14.6653 3.67968 15.4356 4.32807 16.0767C4.9871 16.7075 5.77899 17.0228 6.70375 17.0228C7.6285 17.0228 8.41508 16.7075 9.06347 16.0767C9.7225 15.4356 10.052 14.6653 10.052 13.7657H12.4436Z" fill="black"/>
<path d="M26.7933 0.737305V3.06381H22.2493V19.3493H19.8576V3.06381H15.3136V0.737305H26.7933Z" fill="black"/>
<path d="M34.2073 0.737305H36.5989L41.143 19.3493H38.6876L37.731 15.4718H33.0753L32.1187 19.3493H29.6633L34.2073 0.737305ZM33.6333 13.1453H37.1729L35.4031 5.90214L33.6333 13.1453Z" fill="black"/>
<path d="M55.4927 0.737305V3.06381H50.9486V19.3493H48.557V3.06381H44.013V0.737305H55.4927Z" fill="black"/>
<path d="M58.3627 16.9298C58.5752 16.9298 58.7772 16.9815 58.9685 17.0849C59.1705 17.1883 59.3246 17.3382 59.4309 17.5347C59.5478 17.7311 59.6063 17.9327 59.6063 18.1395C59.6063 18.3463 59.5478 18.548 59.4309 18.7444C59.3246 18.9306 59.1705 19.0805 58.9685 19.1942C58.7772 19.2976 58.5752 19.3493 58.3627 19.3493C58.1501 19.3493 57.9481 19.2976 57.7568 19.1942C57.5548 19.0805 57.4007 18.9306 57.2944 18.7444C57.1775 18.548 57.119 18.3463 57.119 18.1395C57.119 17.9327 57.1775 17.7311 57.2944 17.5347C57.4007 17.3382 57.5548 17.1883 57.7568 17.0849C57.9481 16.9815 58.1501 16.9298 58.3627 16.9298Z" fill="black"/>
</svg>
