<svg width="17" height="11" viewBox="0 0 17 11" fill="none" xmlns="http://www.w3.org/2000/svg">
<path d="M0 0H1.31836V10.5469H0V0Z" fill="black"/>
<path d="M8.85938 0L2.76855 10.5469H1.97754L8.06836 0H8.85938Z" fill="black"/>
<path d="M12.9551 0C13.8281 0 14.5723 0.310547 15.1875 0.931641C15.8086 1.54688 16.1191 2.29102 16.1191 3.16406V7.38281C16.1191 8.25586 15.8086 9.00293 15.1875 9.62402C14.5723 10.2393 13.8281 10.5469 12.9551 10.5469C12.082 10.5469 11.335 10.2393 10.7139 9.62402C10.0986 9.00293 9.79102 8.25586 9.79102 7.38281V3.16406C9.79102 2.29102 10.0986 1.54688 10.7139 0.931641C11.335 0.310547 12.082 0 12.9551 0ZM11.1094 3.16406V7.38281C11.1094 7.89258 11.2881 8.3291 11.6455 8.69238C12.0088 9.0498 12.4453 9.22852 12.9551 9.22852C13.4648 9.22852 13.8984 9.0498 14.2559 8.69238C14.6191 8.3291 14.8008 7.89258 14.8008 7.38281V3.16406C14.8008 2.6543 14.6191 2.2207 14.2559 1.86328C13.8984 1.5 13.4648 1.31836 12.9551 1.31836C12.4453 1.31836 12.0088 1.5 11.6455 1.86328C11.2881 2.2207 11.1094 2.6543 11.1094 3.16406Z" fill="black"/>
</svg>
