<svg width="208" height="154" viewBox="0 0 208 154" fill="none" xmlns="http://www.w3.org/2000/svg">
<path d="M40.6624 72.7238C18.7574 72.7238 1.00001 90.4824 1 112.389C1 134.295 18.7574 152.054 40.6624 152.054C62.5673 152.054 80.3247 134.295 80.3247 112.389C80.3247 90.4824 62.5673 72.7238 40.6624 72.7238Z" fill="#8C8C8C" stroke="black" stroke-width="2" stroke-miterlimit="10"/>
<path d="M26.0719 137.254L11.7139 112.386L26.0719 87.5171L54.7878 87.5171L69.1458 112.386L54.7878 137.254L26.0719 137.254V137.254ZM25.8312 137.673L55.0285 137.673L69.6272 112.386L55.0285 87.0985L25.8312 87.0985L11.2325 112.386L25.8312 137.673Z" fill="black"/>
<path d="M40.3481 130.824C30.2096 130.824 21.9632 122.575 21.9632 112.437C21.9632 102.3 30.2117 94.0513 40.3481 94.0513C50.4845 94.0513 58.733 102.3 58.733 112.437C58.733 122.575 50.4866 130.824 40.3481 130.824ZM40.3481 131.242C50.7336 131.242 59.1516 122.824 59.1516 112.437C59.1516 102.051 50.7336 93.6327 40.3481 93.6327C29.9626 93.6327 21.5446 102.051 21.5446 112.437C21.5446 122.824 29.9626 131.242 40.3481 131.242Z" fill="black"/>
<path d="M40.3607 123.496C34.268 123.496 29.3139 118.54 29.3139 112.449C29.3139 106.356 34.2701 101.401 40.3607 101.401C46.4513 101.401 51.4076 106.358 51.4076 112.449C51.4097 118.54 46.4534 123.496 40.3607 123.496ZM40.3607 123.915C46.6941 123.915 51.8262 118.781 51.8262 112.449C51.8262 106.115 46.692 100.983 40.3607 100.983C34.0273 100.983 28.8953 106.117 28.8953 112.449C28.8953 118.781 34.0273 123.915 40.3607 123.915Z" fill="black"/>
<path d="M166.662 72.7238C144.757 72.7238 127 90.4824 127 112.389C127 134.295 144.757 152.054 166.662 152.054C188.567 152.054 206.325 134.295 206.325 112.389C206.325 90.4824 188.567 72.7238 166.662 72.7238Z" fill="#8C8C8C" stroke="black" stroke-width="2" stroke-miterlimit="10"/>
<path d="M180.907 87.3081L195.387 112.386L180.907 137.464L151.953 137.464L137.473 112.386L151.953 87.3081L180.907 87.3081Z" fill="#4D4D4D"/>
<path d="M166.348 130.824C156.21 130.824 147.963 122.575 147.963 112.437C147.963 102.3 156.212 94.0513 166.348 94.0513C176.485 94.0513 184.733 102.3 184.733 112.437C184.733 122.575 176.487 130.824 166.348 130.824ZM166.348 131.242C176.734 131.242 185.152 122.824 185.152 112.437C185.152 102.051 176.734 93.6327 166.348 93.6327C155.963 93.6327 147.545 102.051 147.545 112.437C147.545 122.824 155.963 131.242 166.348 131.242Z" fill="black"/>
<path d="M166.361 123.496C160.268 123.496 155.314 118.54 155.314 112.449C155.314 106.356 160.27 101.401 166.361 101.401C172.451 101.401 177.408 106.358 177.408 112.449C177.41 118.54 172.453 123.496 166.361 123.496ZM166.361 123.915C172.694 123.915 177.826 118.781 177.826 112.449C177.826 106.115 172.692 100.983 166.361 100.983C160.027 100.983 154.895 106.117 154.895 112.449C154.895 118.781 160.027 123.915 166.361 123.915Z" fill="black"/>
<rect x="6.15796" y="0.15625" width="76.6667" height="22.1913" fill="#C4C4C4"/>
<rect x="127.21" y="0.15625" width="76.6667" height="22.1913" fill="#C4C4C4"/>
<path d="M142.043 7V15H140.993V8H138.051V15H137V7H142.043Z" fill="black"/>
<path d="M145.826 7C146.522 7 147.115 7.23556 147.605 7.70667C148.1 8.17333 148.348 8.73778 148.348 9.4V12.6C148.348 13.2622 148.1 13.8289 147.605 14.3C147.115 14.7667 146.522 15 145.826 15C145.13 15 144.535 14.7667 144.04 14.3C143.55 13.8289 143.304 13.2622 143.304 12.6V9.4C143.304 8.73778 143.55 8.17333 144.04 7.70667C144.535 7.23556 145.13 7 145.826 7ZM144.355 9.4V12.6C144.355 12.9867 144.498 13.3178 144.782 13.5933C145.072 13.8644 145.42 14 145.826 14C146.232 14 146.578 13.8644 146.863 13.5933C147.152 13.3178 147.297 12.9867 147.297 12.6V9.4C147.297 9.01333 147.152 8.68444 146.863 8.41333C146.578 8.13778 146.232 8 145.826 8C145.42 8 145.072 8.13778 144.782 8.41333C144.498 8.68444 144.355 9.01333 144.355 9.4Z" fill="black"/>
<path d="M153.601 7H156.123V14H157.174V16H156.123V15H150.659L150.638 16H149.609V14H150.659L152.13 8.10667C152.313 7.36889 152.803 7 153.601 7ZM151.738 14H155.072V8H153.601C153.359 8 153.209 8.11333 153.153 8.34L151.738 14Z" fill="black"/>
<path d="M163.478 12.6C163.478 13.2622 163.231 13.8289 162.736 14.3C162.245 14.7667 161.652 15 160.957 15C160.261 15 159.665 14.7667 159.17 14.3C158.68 13.8289 158.435 13.2622 158.435 12.6V9.4C158.435 8.73778 158.68 8.17333 159.17 7.70667C159.665 7.23556 160.261 7 160.957 7C161.652 7 162.245 7.23556 162.736 7.70667C163.231 8.17333 163.478 8.73778 163.478 9.4H162.428C162.428 9.01333 162.283 8.68444 161.993 8.41333C161.708 8.13778 161.363 8 160.957 8C160.55 8 160.202 8.13778 159.913 8.41333C159.628 8.68444 159.486 9.01333 159.486 9.4V12.6C159.486 12.9867 159.628 13.3178 159.913 13.5933C160.202 13.8644 160.55 14 160.957 14C161.363 14 161.708 13.8644 161.993 13.5933C162.283 13.3178 162.428 12.9867 162.428 12.6H163.478Z" fill="black"/>
<path d="M164.739 7H167.681C168.26 7 168.755 7.19556 169.166 7.58667C169.577 7.97778 169.783 8.44889 169.783 9C169.783 9.55111 169.507 10.0911 168.956 10.62C169.507 11.1444 169.783 11.7378 169.783 12.4V12.6C169.783 13.2622 169.535 13.8289 169.04 14.3C168.55 14.7667 167.957 15 167.261 15H164.739V7ZM165.79 8V10H167.681C167.971 10 168.218 9.90222 168.424 9.70667C168.629 9.51111 168.732 9.27556 168.732 9C168.732 8.72444 168.629 8.48889 168.424 8.29333C168.218 8.09778 167.971 8 167.681 8H165.79ZM165.79 11V14H167.261C167.667 14 168.013 13.8644 168.298 13.5933C168.587 13.3178 168.732 12.9867 168.732 12.6V12.4C168.732 12.0133 168.587 11.6844 168.298 11.4133C168.013 11.1378 167.667 11 167.261 11H165.79Z" fill="black"/>
<path d="M175.562 7V8H172.094V10H175.036V11H172.094V14H176.087V15H171.043V7H175.562Z" fill="black"/>
<path d="M182.391 7V8H180.395V15H179.344V8H177.348V7H182.391Z" fill="black"/>
<path d="M184.703 7V10.6133L187.407 7H188.696L186.699 9.66667L188.696 15H187.582L185.957 10.66L184.703 12.3333V15H183.652V7H184.703Z" fill="black"/>
<path d="M191.953 7H193.004L195 15H193.921L193.501 13.3333H191.456L191.035 15H189.957L191.953 7ZM191.701 12.3333H193.256L192.478 9.22L191.701 12.3333Z" fill="black"/>
<path d="M27.0588 7V15H26.0049V8H23.0539V15H22V7H27.0588Z" fill="black"/>
<path d="M29.3775 7V12.84L32.2933 7H33.3824V15H32.3284V9.16L29.4828 15L28.3235 14.9933V7H29.3775Z" fill="black"/>
<path d="M39.7059 7V8H37.7034V15H36.6495V8H34.6471V7H39.7059Z" fill="black"/>
<path d="M42.973 7H44.027L46.0294 15H44.9474L44.5258 13.3333H42.4742L42.0526 15H40.9706L42.973 7ZM42.7201 12.3333H44.2799L43.5 9.22L42.7201 12.3333Z" fill="black"/>
<path d="M48.348 7V10H51.299V7H52.3529V15H51.299V11H48.348V15H47.2941V7H48.348Z" fill="black"/>
<path d="M54.6716 7V12.84L57.5874 7H58.6765V15H57.6225V9.16L54.777 15L53.6176 14.9933V7H54.6716Z" fill="black"/>
<path d="M64.473 7V8H60.9951V10H63.9461V11H60.9951V14H65V15H59.9412V7H64.473Z" fill="black"/>
<path d="M54.9073 87.3081L69.3867 112.386L54.9073 137.464L25.9528 137.464L11.4734 112.386L25.9528 87.3081L54.9073 87.3081Z" fill="#4D4D4D"/>
<path d="M23.1682 105.32C19.2381 114.809 23.7435 125.687 33.2313 129.617C42.7192 133.548 53.5965 129.042 57.5266 119.553C61.4566 110.065 56.9512 99.1869 47.4634 95.2566C37.9756 91.3262 27.0982 95.832 23.1682 105.32Z" fill="#808080"/>
<path d="M40.3593 101.189C46.5672 101.189 51.6155 106.24 51.6155 112.446C51.6155 118.654 46.5651 123.705 40.3593 123.705C34.1515 123.705 29.1031 118.654 29.1031 112.446C29.1032 106.24 34.1515 101.189 40.3593 101.189Z" fill="#333333"/>
<path d="M152.072 137.254L137.714 112.386L152.072 87.5171L180.788 87.5171L195.146 112.386L180.788 137.254L152.072 137.254V137.254ZM151.831 137.673L181.029 137.673L195.627 112.386L181.029 87.0985L151.831 87.0985L137.232 112.386L151.831 137.673Z" fill="black"/>
<path d="M149.168 105.32C145.238 114.809 149.744 125.687 159.231 129.617C168.719 133.548 179.597 129.042 183.527 119.553C187.457 110.065 182.951 99.1869 173.463 95.2566C163.976 91.3262 153.098 95.832 149.168 105.32Z" fill="#808080"/>
<path d="M166.359 101.189C172.567 101.189 177.615 106.24 177.615 112.446C177.615 118.654 172.565 123.705 166.359 123.705C160.151 123.705 155.103 118.654 155.103 112.446C155.103 106.24 160.151 101.189 166.359 101.189Z" fill="#333333"/>
</svg>
